<?xml version="1.0" encoding="UTF-8"?>
<svg version="1.1" xmlns="http://www.w3.org/2000/svg" width="275" height="270">
<path d="M0 0 C29.37 0 58.74 0 89 0 C89 29.37 89 58.74 89 89 C59.63 89 30.26 89 0 89 C0 59.63 0 30.26 0 0 Z M15 14 C15 34.13 15 54.26 15 75 C34.8 75 54.6 75 75 75 C75 54.87 75 34.74 75 14 C55.2 14 35.4 14 15 14 Z " fill="#FEFEFE" transform="translate(94,90)"/>
<path d="M0 0 C9.79371719 4.58649432 19.08437807 9.89150263 28.39624023 15.38012695 C35.89621311 19.79409782 43.45636076 24.08436785 51.0625 28.3125 C60.15134939 33.36927941 69.1390769 38.55377409 78 44 C75.1956086 47.02243375 72.48890658 49.05309623 68.87890625 51.03125 C67.872229 51.58804443 66.86555176 52.14483887 65.82836914 52.71850586 C64.75063232 53.30639893 63.67289551 53.89429199 62.5625 54.5 C60.28083113 55.76096111 57.99958714 57.02269132 55.71875 58.28515625 C54.58050781 58.91309082 53.44226563 59.54102539 52.26953125 60.18798828 C47.67820255 62.73255531 43.11702466 65.32777922 38.5625 67.9375 C37.73903076 68.40768555 36.91556152 68.87787109 36.06713867 69.36230469 C31.64139961 71.89419783 27.2285231 74.44678331 22.82853699 77.02320862 C20.43424204 78.42460477 18.03731399 79.82146687 15.64035034 81.21829224 C13.90397019 82.23306921 12.17179284 83.25502659 10.43969727 84.27709961 C9.38451904 84.89206299 8.32934082 85.50702637 7.2421875 86.140625 C6.3022998 86.69266602 5.36241211 87.24470703 4.39404297 87.81347656 C2 89 2 89 -1 89 C-1.02312241 77.54349984 -1.04091457 66.08700519 -1.05181217 54.63048649 C-1.05704122 49.31134787 -1.06413927 43.99222516 -1.07543945 38.6730957 C-1.08626755 33.54436015 -1.09227667 28.41563994 -1.09487724 23.28689384 C-1.09673163 21.32558386 -1.10035251 19.36427476 -1.10573006 17.40297127 C-1.11293946 14.66584553 -1.11399099 11.92878403 -1.11352539 9.19165039 C-1.11712067 8.37238068 -1.12071594 7.55311096 -1.12442017 6.70901489 C-1.11405216 1.11405216 -1.11405216 1.11405216 0 0 Z M14 25 C14 37.87 14 50.74 14 64 C22.56068803 59.71965598 30.76783814 55.54047227 38.875 50.5625 C39.76574219 50.02173828 40.65648437 49.48097656 41.57421875 48.92382812 C43.71915927 47.6207191 45.8610086 46.31284238 48 45 C45.49962968 42.18781132 42.72597675 40.56974201 39.44921875 38.75 C37.81243164 37.83734375 37.81243164 37.83734375 36.14257812 36.90625 C35.00240234 36.2771875 33.86222656 35.648125 32.6875 35 C31.55892578 34.3709375 30.43035156 33.741875 29.26757812 33.09375 C24.21826218 30.28824426 19.16934759 27.5846738 14 25 Z " fill="#FFFFFF" transform="translate(192,90)"/>
<path d="M0 0 C29.37 0 58.74 0 89 0 C88.07134934 3.71460266 86.95881328 6.14458636 85.11328125 9.453125 C84.51177246 10.5349707 83.91026367 11.61681641 83.29052734 12.73144531 C82.63144348 13.9044422 81.97209417 15.07728999 81.3125 16.25 C80.6321882 17.46704638 79.95201429 18.68416984 79.27197266 19.90136719 C74.3360166 28.71476679 69.27878942 37.45487015 64.1628418 46.16503906 C57.97806544 56.70291589 51.97995986 67.34490812 46 78 C42.09439667 76.69813222 41.75349685 75.31354055 39.76953125 71.76171875 C39.13942139 70.64531006 38.50931152 69.52890137 37.86010742 68.37866211 C37.17749842 67.14831535 36.49496462 65.91792686 35.8125 64.6875 C35.10164174 63.42205955 34.38979397 62.15717449 33.67700195 60.89282227 C32.19126804 58.2555746 30.70987335 55.61595914 29.23144531 52.97460938 C26.08705115 47.36428523 22.89249641 41.78275347 19.6968689 36.20150757 C18.69205613 34.44546245 17.68915037 32.68834135 16.68676758 30.9309082 C13.66460855 25.63675541 10.62968049 20.35123122 7.55078125 15.08984375 C7.03104736 14.20047119 6.51131348 13.31109863 5.97583008 12.39477539 C5.01995505 10.76275121 4.06038766 9.13288175 3.09643555 7.50561523 C0 2.21976862 0 2.21976862 0 0 Z M25 15 C27.64 19.62 30.28 24.24 33 29 C35.00964737 32.62032063 37.01299434 36.24241782 39 39.875 C39.48855469 40.76574219 39.97710937 41.65648437 40.48046875 42.57421875 C41.65474533 44.71554662 42.82792672 46.85746561 44 49 C46.81218868 46.49962968 48.43025799 43.72597675 50.25 40.44921875 C50.8584375 39.35802734 51.466875 38.26683594 52.09375 37.14257812 C52.7228125 36.00240234 53.351875 34.86222656 54 33.6875 C54.6290625 32.55892578 55.258125 31.43035156 55.90625 30.26757812 C58.71175574 25.21826218 61.4153262 20.16934759 64 15 C51.13 15 38.26 15 25 15 Z " fill="#FFFFFF" transform="translate(94,185)"/>
<path d="M0 0 C0 29.37 0 58.74 0 89 C-4.27709306 87.57430231 -7.40152982 86.38334458 -11.2109375 84.234375 C-12.19594238 83.68128662 -13.18094727 83.12819824 -14.19580078 82.55834961 C-15.24493652 81.96159424 -16.29407227 81.36483887 -17.375 80.75 C-18.4769873 80.12810791 -19.57897461 79.50621582 -20.71435547 78.86547852 C-29.20836393 74.05680691 -37.64514295 69.15221594 -46.06396484 64.21337891 C-56.63835751 58.01677428 -67.31220276 51.9983151 -78 46 C-76.69813222 42.09439667 -75.31354055 41.75349685 -71.76171875 39.76953125 C-70.08710571 38.82436646 -70.08710571 38.82436646 -68.37866211 37.86010742 C-67.14831535 37.17749842 -65.91792686 36.49496462 -64.6875 35.8125 C-63.42205955 35.10164174 -62.15717449 34.38979397 -60.89282227 33.67700195 C-58.2555746 32.19126804 -55.61595914 30.70987335 -52.97460938 29.23144531 C-47.36428523 26.08705115 -41.78275347 22.89249641 -36.20150757 19.6968689 C-34.44546245 18.69205613 -32.68834135 17.68915037 -30.9309082 16.68676758 C-25.63675541 13.66460855 -20.35123122 10.62968049 -15.08984375 7.55078125 C-14.20047119 7.03104736 -13.31109863 6.51131348 -12.39477539 5.97583008 C-10.76275121 5.01995505 -9.13288175 4.06038766 -7.50561523 3.09643555 C-2.21976862 0 -2.21976862 0 0 0 Z M-22.41796875 28.921875 C-23.50787109 29.53546875 -24.59777344 30.1490625 -25.72070312 30.78125 C-26.86474609 31.4309375 -28.00878906 32.080625 -29.1875 32.75 C-30.31220703 33.38421875 -31.43691406 34.0184375 -32.59570312 34.671875 C-38.07387819 37.76361402 -43.54229146 40.8722828 -49 44 C-45.33733368 47.08047532 -41.57844148 49.52400125 -37.421875 51.890625 C-36.80983215 52.24010193 -36.19778931 52.58957886 -35.56719971 52.949646 C-34.28424781 53.68104618 -33.00010972 54.41036925 -31.71484375 55.13769531 C-29.73929433 56.25606052 -27.76784682 57.38140308 -25.796875 58.5078125 C-20.60529803 62.13008036 -20.60529803 62.13008036 -15 64 C-15 51.46 -15 38.92 -15 26 C-17.98461298 26 -19.83069398 27.45903653 -22.41796875 28.921875 Z " fill="#FEFEFE" transform="translate(86,90)"/>
<path d="M0 0 C0.66 0 1.32 0 2 0 C2.57161865 1.03833984 2.57161865 1.03833984 3.15478516 2.09765625 C9.99918534 14.51450655 16.87905764 26.90000504 24.0625 39.125 C29.07643489 47.66592921 34.01542262 56.24551987 38.875 64.875 C39.79551147 66.49946045 39.79551147 66.49946045 40.73461914 68.15673828 C41.2939917 69.15431152 41.85336426 70.15188477 42.4296875 71.1796875 C42.92710449 72.06382324 43.42452148 72.94795898 43.93701172 73.85888672 C45 76 45 76 45 78 C15.63 78 -13.74 78 -44 78 C-42.54877547 74.37193866 -41.12455815 71.25771216 -39.234375 67.88671875 C-38.68128662 66.89849121 -38.12819824 65.91026367 -37.55834961 64.89208984 C-36.96159424 63.8345752 -36.36483887 62.77706055 -35.75 61.6875 C-35.12810791 60.58100098 -34.50621582 59.47450195 -33.86547852 58.33447266 C-29.06374138 49.81886834 -24.16009547 41.36494273 -19.21118164 32.93408203 C-14.37873263 24.69029159 -9.66585215 16.38230772 -4.99780273 8.04443359 C-4.23125366 6.67859131 -4.23125366 6.67859131 -3.44921875 5.28515625 C-2.99893311 4.47957275 -2.54864746 3.67398926 -2.0847168 2.84399414 C-1 1 -1 1 0 0 Z M0 30 C-2.2344938 33.78855053 -4.46159423 37.58139837 -6.6875 41.375 C-7.62625977 42.96634766 -7.62625977 42.96634766 -8.58398438 44.58984375 C-9.19951172 45.64042969 -9.81503906 46.69101562 -10.44921875 47.7734375 C-11.00955811 48.72653809 -11.56989746 49.67963867 -12.1472168 50.66162109 C-14.57287324 55.03221356 -16.76456323 59.52912646 -19 64 C-6.13 64 6.74 64 20 64 C17.65036087 58.12590217 14.66643196 52.71702991 11.60522461 47.19702148 C10.56208752 45.31175452 9.52997569 43.42071667 8.49804688 41.52929688 C7.83400199 40.32775522 7.16931061 39.12657057 6.50390625 37.92578125 C5.90392822 36.83692627 5.3039502 35.74807129 4.68579102 34.6262207 C3.10815171 31.78280749 3.10815171 31.78280749 0 30 Z " fill="#FEFEFE" transform="translate(138,6)"/>
</svg>
