<?xml version="1.0" encoding="UTF-8"?>
<svg version="1.1" xmlns="http://www.w3.org/2000/svg" width="254" height="59">
<path d="M0 0 C8.90881067 4.79058687 13.90115974 10.95347922 17.0625 20.4375 C17.8876916 31.71962784 16.99887744 39.7711394 9.8125 48.75 C5.04589559 53.90697287 -1.14720787 57.1602724 -8.1953125 57.67578125 C-19.4452121 57.89168841 -26.79501714 56.15385866 -35.2109375 48.375 C-41.45940564 41.36314435 -42.39523835 33.31918755 -42.2109375 24.23828125 C-41.59317608 15.65139756 -37.30443581 9.11126135 -30.9375 3.4375 C-22.02052869 -2.23395602 -9.97701985 -4.08865612 0 0 Z " fill="#2466EE" transform="translate(41.9375,1.5625)"/>
<path d="M0 0 C8.90881067 4.79058687 13.90115974 10.95347922 17.0625 20.4375 C17.8876916 31.71962784 16.99887744 39.7711394 9.8125 48.75 C5.04589559 53.90697287 -1.14720787 57.1602724 -8.1953125 57.67578125 C-19.4452121 57.89168841 -26.79501714 56.15385866 -35.2109375 48.375 C-41.45940564 41.36314435 -42.39523835 33.31918755 -42.2109375 24.23828125 C-41.59317608 15.65139756 -37.30443581 9.11126135 -30.9375 3.4375 C-22.02052869 -2.23395602 -9.97701985 -4.08865612 0 0 Z M-35.9375 10.4375 C-40.86729907 17.91595733 -42.40928901 25.60676594 -40.9375 34.4375 C-37.66148272 44.12712858 -32.63434791 50.21265687 -23.625 54.8125 C-16.17305705 57.83116842 -8.81303152 57.01330774 -1.3203125 54.46484375 C6.73566046 50.99153082 11.43655794 45.35434926 15.0625 37.4375 C17.2751086 28.80425418 16.82505138 21.37432458 12.41015625 13.58984375 C8.20127709 6.86783674 3.384768 3.50040063 -3.6875 0.125 C-16.41697889 -2.56777438 -27.38077409 0.44845258 -35.9375 10.4375 Z " fill="#F6F6FD" transform="translate(41.9375,1.5625)"/>
<path d="M0 0 C1.65 0 3.3 0 5 0 C6.32 2.97 7.64 5.94 9 9 C10.32 6.03 11.64 3.06 13 0 C14.65 0 16.3 0 18 0 C18 5.61 18 11.22 18 17 C16.68 17 15.36 17 14 17 C13.67 15.68 13.34 14.36 13 13 C12.34 14.32 11.68 15.64 11 17 C9.68 17 8.36 17 7 17 C6.34 15.35 5.68 13.7 5 12 C4.67 13.65 4.34 15.3 4 17 C2.68 17 1.36 17 0 17 C0 11.39 0 5.78 0 0 Z " fill="#1263F0" transform="translate(84,16)"/>
<path d="M0 0 C2.57990385 0.29317089 3.71766051 0.69016956 5.484375 2.62890625 C5.90203125 3.26699219 6.3196875 3.90507812 6.75 4.5625 C7.17796875 5.20316406 7.6059375 5.84382813 8.046875 6.50390625 C8.36140625 6.99761719 8.6759375 7.49132812 9 8 C9.33 5.36 9.66 2.72 10 0 C11.32 0 12.64 0 14 0 C14 5.61 14 11.22 14 17 C8.54050926 15.90810185 7.98528919 15.31208438 5 11 C4.67 12.98 4.34 14.96 4 17 C2.35 17 0.7 17 -1 17 C-1.02684679 14.35409986 -1.04676357 11.70846904 -1.0625 9.0625 C-1.07087891 8.30775391 -1.07925781 7.55300781 -1.08789062 6.77539062 C-1.09652441 4.85005687 -1.05224333 2.92464419 -1 1 C-0.67 0.67 -0.34 0.34 0 0 Z " fill="#1263F0" transform="translate(140,16)"/>
<path d="M0 0 C9.35714286 0 9.35714286 0 13 3 C15.13272462 5.71437679 14.99745956 7.04826833 14.8125 10.5625 C13.75964729 15.01687684 13.75964729 15.01687684 11 17 C7.29631297 17.40199208 3.73655831 17.13187853 0 17 C0 11.39 0 5.78 0 0 Z M4 4 C4 7.3 4 10.6 4 14 C7.29075996 13.62095792 7.29075996 13.62095792 10 12 C10.25005386 9.04182893 10.25005386 9.04182893 10 6 C9.34 5.34 8.68 4.68 8 4 C6.68 4 5.36 4 4 4 Z " fill="#1263F0" transform="translate(165,16)"/>
<path d="M0 0 C1.98 0 3.96 0 6 0 C6.83919398 2.26882087 7.67151724 4.53977027 8.5 6.8125 C8.73847656 7.45509766 8.97695312 8.09769531 9.22265625 8.75976562 C10.27068746 11.64933739 11 13.90076061 11 17 C9.35 17 7.7 17 6 17 C6 16.01 6 15.02 6 14 C4.02 14 2.04 14 0 14 C0 14.99 0 15.98 0 17 C-1.65 17 -3.3 17 -5 17 C-1.92482916 5.47835991 -1.92482916 5.47835991 0 0 Z M3 7 C2.67 7.99 2.34 8.98 2 10 C2.66 10 3.32 10 4 10 C3.67 9.01 3.34 8.02 3 7 Z " fill="#1263F0" transform="translate(242,16)"/>
<path d="M0 0 C1.98 0 3.96 0 6 0 C6.83698386 2.45714547 7.66972424 4.91558857 8.5 7.375 C8.73847656 8.07367188 8.97695312 8.77234375 9.22265625 9.4921875 C11 14.7734375 11 14.7734375 11 17 C9.35 17 7.7 17 6 17 C6 16.01 6 15.02 6 14 C4.02 14 2.04 14 0 14 C-0.33 14.99 -0.66 15.98 -1 17 C-2.32 17 -3.64 17 -5 17 C-4.35083537 10.99522721 -2.14204997 5.599219 0 0 Z M2 7 C2 7.99 2 8.98 2 10 C2.66 10 3.32 10 4 10 C3.67 9.01 3.34 8.02 3 7 C2.67 7 2.34 7 2 7 Z " fill="#1263F0" transform="translate(194,16)"/>
<path d="M0 0 C1.98 0 3.96 0 6 0 C6.83698386 2.45714547 7.66972424 4.91558857 8.5 7.375 C8.73847656 8.07367188 8.97695312 8.77234375 9.22265625 9.4921875 C11 14.7734375 11 14.7734375 11 17 C9.35 17 7.7 17 6 17 C6 16.01 6 15.02 6 14 C4.02 14 2.04 14 0 14 C-0.33 14.99 -0.66 15.98 -1 17 C-2.32 17 -3.64 17 -5 17 C-4.31063929 13.08878502 -3.21749819 9.44491404 -1.9375 5.6875 C-1.57527344 4.61886719 -1.21304688 3.55023437 -0.83984375 2.44921875 C-0.56269531 1.64097656 -0.28554687 0.83273438 0 0 Z M2 7 C2 7.99 2 8.98 2 10 C2.66 10 3.32 10 4 10 C3.67 9.01 3.34 8.02 3 7 C2.67 7 2.34 7 2 7 Z " fill="#1263F0" transform="translate(118,16)"/>
<path d="M0 0 C3.63 0 7.26 0 11 0 C11 3.63 11 7.26 11 11 C7.37 11 3.74 11 0 11 C0 7.37 0 3.74 0 0 Z " fill="#FFFFFF" transform="translate(24,24)"/>
<path d="M0 0 C5.06560029 -0.35116813 7.15592057 1.07204219 11.00390625 4.15625 C16.94231797 9.64143656 20.56301038 15.38112137 21.3359375 23.55078125 C21.45316721 34.8400027 19.682317 41.9618786 11.921875 50.26953125 C7.81093901 53.97104475 3.59054777 56.20491494 -2 56.25 C-2.99 56.1675 -3.98 56.085 -5 56 C-5 55.67 -5 55.34 -5 55 C-4.35933594 54.84144531 -3.71867187 54.68289062 -3.05859375 54.51953125 C6.85120793 51.84639548 11.63459706 48.40068952 16.8359375 39.5 C19.82745669 33.0752608 20.34496181 24.94559335 18.05859375 18.23828125 C14.5094785 10.79515239 9.96010535 6.38789251 3 2 C2.01 1.34 1.02 0.68 0 0 Z " fill="#E5F2FE" transform="translate(38,2)"/>
<path d="M0 0 C1.32 0 2.64 0 4 0 C4 4.62 4 9.24 4 14 C6.31 14 8.62 14 11 14 C11 14.99 11 15.98 11 17 C7.04 17 3.08 17 -1 17 C-1.02684679 14.35409986 -1.04676357 11.70846904 -1.0625 9.0625 C-1.07087891 8.30775391 -1.07925781 7.55300781 -1.08789062 6.77539062 C-1.09652441 4.85005687 -1.05224333 2.92464419 -1 1 C-0.67 0.67 -0.34 0.34 0 0 Z " fill="#1163F0" transform="translate(216,16)"/>
<path d="M0 0 C3.70500184 1.48200074 6.67262 2.908504 10 5 C6.98112756 8.48331435 4.43090471 9.79157144 0 11 C0 7.37 0 3.74 0 0 Z " fill="#EBF4FE" transform="translate(38,24)"/>
<path d="M0 0 C3.48331435 3.01887244 4.79157144 5.56909529 6 10 C2.37 10 -1.26 10 -5 10 C-3.51799926 6.29499816 -2.091496 3.32738 0 0 Z " fill="#E9EFFD" transform="translate(29,11)"/>
<path d="M0 0 C1.32 0.33 2.64 0.66 4 1 C4.33 1.66 4.66 2.32 5 3 C5.33 2.01 5.66 1.02 6 0 C6.66 0 7.32 0 8 0 C8 3.3 8 6.6 8 10 C7.01 9.67 6.02 9.34 5 9 C4.67 8.34 4.34 7.68 4 7 C3.67 7.99 3.34 8.98 3 10 C2.01 10 1.02 10 0 10 C0 6.7 0 3.4 0 0 Z " fill="#1262EF" transform="translate(179,37)"/>
<path d="M0 0 C3.63 0 7.26 0 11 0 C9.51799926 3.70500184 8.091496 6.67262 6 10 C3.38275905 7.63202009 1.67138271 5.10399646 0 2 C0 1.34 0 0.68 0 0 Z " fill="#F2F6FE" transform="translate(24,38)"/>
<path d="M0 0 C0 3.63 0 7.26 0 11 C-3.70500184 9.51799926 -6.67262 8.091496 -10 6 C-7.35570758 3.077361 -4.105808 0 0 0 Z " fill="#EFF1FD" transform="translate(21,24)"/>
<path d="M0 0 C0.99 0 1.98 0 3 0 C3 1.32 3 2.64 3 4 C3.99 4 4.98 4 6 4 C6 2.68 6 1.36 6 0 C6.66 0 7.32 0 8 0 C8 3.3 8 6.6 8 10 C7.34 10 6.68 10 6 10 C6 8.68 6 7.36 6 6 C5.01 6 4.02 6 3 6 C2.67 7.32 2.34 8.64 2 10 C1.34 10 0.68 10 0 10 C0 6.7 0 3.4 0 0 Z " fill="#1264F1" transform="translate(153,37)"/>
<path d="M0 0 C2.625 -0.1875 2.625 -0.1875 5 0 C5.66 1.32 6.32 2.64 7 4 C5.35 3.67 3.7 3.34 2 3 C2.33 4.32 2.66 5.64 3 7 C4.32 6.67 5.64 6.34 7 6 C6.34 7.32 5.68 8.64 5 10 C2.03 9.505 2.03 9.505 -1 9 C-1.625 6.1875 -1.625 6.1875 -2 3 C-1.34 2.01 -0.68 1.02 0 0 Z " fill="#1263EF" transform="translate(144,37)"/>
<path d="M0 0 C1.32 0.33 2.64 0.66 4 1 C4.66 3.97 5.32 6.94 6 10 C4.02 9.34 2.04 8.68 0 8 C0 8.66 0 9.32 0 10 C-0.99 9.67 -1.98 9.34 -3 9 C-2.01 6.03 -1.02 3.06 0 0 Z " fill="#1263F0" transform="translate(166,37)"/>
<path d="M0 0 C0.99 0 1.98 0 3 0 C3 3.3 3 6.6 3 10 C2.01 10 1.02 10 0 10 C0 6.7 0 3.4 0 0 Z " fill="#1363EF" transform="translate(174,37)"/>
</svg>
